<?xml version="1.0" encoding="UTF-8"?><svg xmlns="http://www.w3.org/2000/svg" xmlns:xlink="http://www.w3.org/1999/xlink" width="375" zoomAndPan="magnify" viewBox="0 0 375 374.999991" height="374.999991" preserveAspectRatio="xMidYMid meet" version="1.0"><defs><filter x="0%" y="0%" width="100%" xmlns:xlink="http://www.w3.org/1999/xlink" xlink:type="simple" xlink:actuate="onLoad" height="100%" id="filter-remove-color" xlink:show="other"><feColorMatrix values="0 0 0 0 1 0 0 0 0 1 0 0 0 0 1 0 0 0 1 0" color-interpolation-filters="sRGB"/></filter><mask id="mask-0"><g filter="url(#filter-remove-color)"><rect x="-37.5" width="450" fill="rgb(0%, 0%, 0%)" y="-37.499999" height="449.999989" fill-opacity="0.4078"/></g></mask><clipPath id="clip-0"><rect x="0" width="362" y="0" height="362"/></clipPath></defs><g mask="url(#mask-0)"><g transform="matrix(1, 0, 0, 1, 12, 12)"><g id="source-5" clip-path="url(#clip-0)"><path fill="rgb(47.839355%, 25.099182%, 92.939758%)" d="M 354.953125 325.941406 L 256.519531 227.507812 C 297.742188 172.15625 293.40625 93.351562 243.1875 43.136719 C 188.03125 -12.019531 98.289062 -12.019531 43.136719 43.136719 C -12.019531 98.289062 -12.019531 188.03125 43.136719 243.1875 C 93.351562 293.40625 172.15625 297.742188 227.507812 256.519531 L 325.941406 354.953125 C 333.953125 362.96875 346.941406 362.96875 354.953125 354.953125 C 362.96875 346.941406 362.96875 333.953125 354.953125 325.941406 Z M 62.476562 223.847656 C 17.988281 179.359375 17.988281 106.964844 62.476562 62.476562 C 106.964844 17.988281 179.359375 17.988281 223.847656 62.476562 C 268.335938 106.964844 268.335938 179.359375 223.847656 223.847656 C 179.359375 268.335938 106.964844 268.335938 62.476562 223.847656 Z M 62.476562 223.847656 " fill-opacity="1" fill-rule="nonzero"/></g></g></g></svg>